<svg xmlns="http://www.w3.org/2000/svg" width="45" height="40" viewBox="0 0 45 40">
    <path fill="#8B8B8B" fill-rule="nonzero" d="M6.738.164l-.41.641-6.094 9.548L0 10.71v2.819a5.761 5.761 0 0 0 3.281 5.207v19.14c0 .79.63 1.432 1.406 1.432h35.626c.776 0 1.406-.641 1.406-1.432v-19.14A5.761 5.761 0 0 0 45 13.53v-2.819l-.234-.358L38.672.805l-.41-.641H6.738zm1.51 2.864h28.505l5.434 8.518v1.984c0 1.612-1.23 2.865-2.812 2.865-1.582 0-2.813-1.253-2.813-2.865H33.75c0 1.612-1.23 2.865-2.813 2.865-1.582 0-2.812-1.253-2.812-2.865h-2.813c0 1.612-1.23 2.865-2.812 2.865-1.582 0-2.813-1.253-2.813-2.865h-2.812c0 1.612-1.23 2.865-2.813 2.865-1.582 0-2.812-1.253-2.812-2.865H8.437c0 1.612-1.23 2.865-2.812 2.865-1.582 0-2.813-1.253-2.813-2.865v-1.984l5.435-8.518zM9.843 17.2c1.034 1.231 2.514 2.059 4.219 2.059 1.704 0 3.184-.828 4.218-2.059 1.034 1.231 2.515 2.059 4.219 2.059 1.704 0 3.185-.828 4.219-2.059 1.034 1.231 2.514 2.059 4.218 2.059 1.705 0 3.185-.828 4.22-2.059.937 1.117 2.243 1.908 3.75 2.044v17.2H21.093V22.602c0-.791-.63-1.433-1.407-1.433h-9.375c-.776 0-1.406.642-1.406 1.433v13.844H6.094V19.244c1.506-.136 2.812-.927 3.75-2.044zm14.531 3.968c-.777 0-1.406.642-1.406 1.433v6.683c0 .79.63 1.432 1.406 1.432h10.313c.776 0 1.406-.641 1.406-1.432V22.6c0-.791-.63-1.433-1.407-1.433H24.376zm-12.656 2.865h6.562v12.412H11.72V24.033zm14.062 0h7.5v3.819h-7.5v-3.82z"/>
</svg>
