<svg width="24" height="25" viewBox="0 0 24 25" fill="none" xmlns="http://www.w3.org/2000/svg">
<path fill-rule="evenodd" clip-rule="evenodd" d="M12.2779 2.13779C12.0937 1.59469 11.3256 1.59469 11.1414 2.13779L10.5652 3.83718C10.4525 4.16952 10.0799 4.33463 9.75802 4.19486L8.07071 3.46222C7.54852 3.23548 7.03366 3.79542 7.30333 4.29679L8.69084 6.87654C5.3577 8.15263 3 11.2994 3 14.9792C3 19.7897 7.02944 23.6894 12 23.6894C16.9706 23.6894 21 19.7897 21 14.9792C21 11.1221 18.4096 7.85058 14.8206 6.70523L16.116 4.29679C16.3857 3.79542 15.8708 3.23548 15.3486 3.46222L13.6613 4.19486C13.3394 4.33463 12.9668 4.16952 12.8541 3.83718L12.2779 2.13779Z" fill="url(#paint0_linear)"/>
<path fill-rule="evenodd" clip-rule="evenodd" d="M11.2692 11.9626C11.2692 11.2791 10.7009 10.7251 9.99994 10.7251C9.29896 10.7251 8.73071 11.2791 8.73071 11.9626C8.73071 12.646 9.29896 13.2001 9.99994 13.2001C10.7009 13.2001 11.2692 12.646 11.2692 11.9626ZM13.9769 11.0551L15.3307 12.0451L10.2538 18.6451L8.89994 17.6551L13.9769 11.0551ZM14.2307 16.5001C14.9317 16.5001 15.4999 17.0541 15.4999 17.7376C15.4999 18.4211 14.9317 18.9751 14.2307 18.9751C13.5297 18.9751 12.9615 18.4211 12.9615 17.7376C12.9615 17.0541 13.5297 16.5001 14.2307 16.5001Z" fill="white"/>
<defs>
<linearGradient id="paint0_linear" x1="7" y1="23.2252" x2="21.6867" y2="9.98695" gradientUnits="userSpaceOnUse">
<stop stop-color="#C70006"/>
<stop offset="1" stop-color="#FF2343"/>
</linearGradient>
</defs>
</svg>
