<svg xmlns="http://www.w3.org/2000/svg" width="274" height="35" viewBox="0 0 274 35">
    <g fill="none" fill-rule="evenodd">
        <path fill="#6D6E71" d="M68.115 8.127c.216 0 .42.094.56.257l.03.036.848 1.123v-.678c0-.394.31-.716.698-.737l.04-.001h2.098c.394 0 .716.309.737.698l.001.04v13.15c.001 1.44-.588 2.76-1.533 3.702-.921.923-2.203 1.507-3.605 1.532l-.098.001h-2.725c-.216 0-.42-.094-.56-.257l-.03-.036-1.814-2.4c-.257-.34-.027-.825.39-.85l.035-.002h4.704c.472 0 .883-.186 1.195-.495.294-.296.476-.683.494-1.127l.001-.067h-5.12c-1.441 0-2.761-.59-3.703-1.534-.924-.92-1.508-2.201-1.533-3.603l-.001-.098v-3.42c-.001-1.44.589-2.76 1.534-3.701.92-.923 2.202-1.507 3.605-1.532l.098-.001h3.654zm15.747-4.87c.395 0 .717.31.738.698v10.568l.006-.006v.02l4.663-6.12c.13-.17.328-.276.542-.289l.046-.001h3.097c.397 0 .626.44.411.763l-.019.027-4.713 6.184 4.663 6.124c.24.315.028.765-.358.79h-3.131c-.215 0-.419-.093-.559-.255l-.029-.036-4.324-5.68.003-.004-.292-.385v.006l-.005-.006v5.622c0 .394-.31.716-.698.737l-.04.001h-2.07c-.394 0-.716-.308-.737-.697l-.001-.04V3.995c0-.394.309-.717.698-.738h2.11zm29.279 0c.394 0 .716.31.737.698l.001.04v17.282c0 .394-.309.716-.698.737l-.04.001h-2.07c-.394 0-.716-.309-.737-.697V3.996c0-.394.308-.716.697-.738h2.11zM56.295 8.115c.394 0 .716.309.737.697l.001.04v12.425c0 .394-.309.716-.698.737l-.04.001h-2.07c-.394 0-.716-.309-.737-.697l-.001-.04V8.852c0-.394.309-.716.698-.737l.04-.001h2.07zm21.83 0c.395 0 .717.309.738.697l.001.04v12.425c0 .394-.309.716-.698.737l-.04.001h-2.07c-.394 0-.716-.309-.737-.697l-.001-.04V8.852c0-.394.309-.716.698-.737l.04-.001h2.07zM50.559 3.257c.394 0 .716.31.737.698l.002.04v17.282c0 .394-.31.716-.698.737l-.041.001h-2.07c-.393 0-.715-.308-.736-.697l-.002-.04v-.68l-.849 1.124c-.13.173-.329.279-.543.292l-.046.001H42.63c-1.44.001-2.761-.588-3.703-1.533-.924-.92-1.508-2.202-1.533-3.603l-.001-.098v-3.42c-.001-1.44.589-2.76 1.534-3.701.92-.923 2.202-1.507 3.605-1.533h5.218V3.996c0-.395.31-.717.698-.738h2.11zm56.846 4.87c.394 0 .716.309.737.697l.001.04v12.413c0 .394-.309.716-.697.737l-.04.001h-2.102c-.394 0-.716-.308-.737-.697l-.001-.04v-.68l-.85 1.124c-.13.173-.328.279-.542.292l-.046.001h-3.651c-1.44.001-2.761-.588-3.703-1.533-.924-.92-1.508-2.202-1.533-3.603l-.001-.098v-3.42c-.001-1.44.589-2.76 1.534-3.701.92-.923 2.202-1.507 3.605-1.533h8.026zm21.831 0c.394 0 .716.309.737.697l.001.04v12.413c0 .394-.309.716-.697.737l-.04.001h-2.003c-.394 0-.717-.308-.738-.697V20.598l-.85 1.124c-.13.173-.329.279-.543.292l-.046.001h-3.749c-1.44.001-2.761-.588-3.703-1.533-.924-.92-1.508-2.202-1.533-3.603l-.001-.098v-3.42c-.001-1.44.589-2.76 1.534-3.701.92-.923 2.202-1.507 3.605-1.533h8.026zM69.581 11.67h-5.12c-.473.001-.884.187-1.196.495-.294.297-.476.684-.494 1.128l-.001.067v3.42c0 .472.186.884.495 1.195.297.294.684.476 1.129.494l.067.001h5.12v-6.8zm-21.831 0h-5.12c-.473 0-.884.187-1.196.495-.294.297-.476.684-.494 1.128l-.001.067v3.42c0 .472.186.883.495 1.195.297.294.684.476 1.129.493l.067.002h5.12v-6.8zm56.846 0h-5.12c-.472 0-.884.187-1.196.495-.294.297-.476.684-.493 1.128l-.002.067v3.42c.001.472.187.883.495 1.195.297.294.685.476 1.129.493l.067.002h5.12v-6.8zm21.831 0h-5.12c-.473 0-.884.187-1.196.495-.294.297-.476.684-.494 1.128l-.001.067v3.42c.001.472.187.883.495 1.195.297.294.684.476 1.129.493l.067.002h5.12v-6.8zM56.295 3.257c.394 0 .716.31.737.698l.001.04v1.713c0 .394-.309.716-.698.737l-.04.001h-2.07c-.394 0-.716-.309-.737-.698l-.001-.04V3.996c0-.394.309-.716.698-.738h2.11zm21.83 0c.395 0 .717.31.738.698l.001.04v1.713c0 .394-.309.716-.698.737l-.04.001h-2.07c-.394 0-.716-.309-.737-.698l-.001-.04V3.996c0-.394.309-.716.698-.738h2.11zM23.844 15.06c-2.115 2.548-5.27 4.045-8.609 4.045-3.34 0-6.494-1.497-8.609-4.046-.316-.381-.234-.952.171-1.236l1.417-.99c.361-.254.852-.184 1.14.15 1.466 1.703 3.612 2.7 5.881 2.7s4.415-.997 5.882-2.7c.287-.334.777-.404 1.14-.15l1.416.99c.405.284.487.855.17 1.236M19.216 0H1.575C.705 0 0 .705 0 1.575l.008 27.32c.003.867.707 1.569 1.575 1.569h17.632c6.216 0 11.255-5.037 11.255-11.25V11.25C30.47 5.037 25.43 0 19.215 0" transform="translate(0 2.188)"/>
        <path fill="#F9B617" d="M138.997 7.878c2.28 0 4.025 1.163 4.957 3.094l-2.3 1.32c-.496-1.044-1.249-1.773-2.657-1.773-1.15 0-1.824.591-1.824 1.38 0 .847.535 1.3 2.637 1.93l.54.171c2.027.652 4 1.479 4 4.067 0 2.582-2.081 4.158-5.036 4.158-2.835 0-4.7-1.36-5.453-3.41l2.34-1.36c.496 1.282 1.468 2.11 3.193 2.11 1.646 0 2.22-.69 2.22-1.459 0-.993-.874-1.394-2.804-1.955l-.328-.095c-2.072-.61-4.046-1.515-4.046-4.079 0-2.601 2.182-4.099 4.561-4.099zm70.923 0c2.538 0 4.779 1.281 5.968 3.252l-2.36 1.36c-.673-1.222-2.022-1.971-3.608-1.971-2.717 0-4.501 1.872-4.501 4.532 0 2.641 1.784 4.513 4.5 4.513 1.587 0 2.955-.748 3.61-1.95l2.36 1.36c-1.17 1.97-3.411 3.251-5.97 3.251-4.203 0-7.217-3.153-7.217-7.174 0-4.04 3.014-7.173 7.218-7.173zm-18.162.276c2.558 0 4.62 2.05 4.62 4.572 0 1.734-1.09 3.291-2.677 4.02l3.074 5.203h-2.955l-2.796-4.789h-2.082v4.79h-2.736V8.153h5.552zm58.848 0v2.601h-3.747V21.95h-2.737V10.755h-3.728V8.154h10.212zm17.587 0c2.558 0 4.62 2.05 4.62 4.572 0 1.734-1.09 3.291-2.677 4.02l3.073 5.203h-2.954l-2.796-4.789h-2.082v4.79h-2.736V8.153h5.552zm-113.67 0v2.601h-5.751v2.937h5.255v2.562h-5.255v3.094h5.85v2.601h-8.587V8.154h8.487zm4.757 0v11.194h5.295v2.601h-8.03V8.154h2.735zm9.577 0v11.194h5.294v2.601h-8.03V8.154h2.736zm15.327 0v2.601h-5.75v2.937h5.254v2.562h-5.254v3.094h5.85v2.601h-8.587V8.154h8.487zm41.876 0v2.601h-5.75v2.937h5.254v2.562h-5.255v3.094h5.85v2.601h-8.586V8.154h8.487zm4.104 0l5.948 8.415V8.154h2.737v13.795h-2.082l-5.949-8.435v8.435h-2.736V8.154h2.082zm30.455 0v2.601h-5.75v2.937h5.254v2.562h-5.255v3.094h5.85v2.601h-8.586V8.154h8.487zm-68.861 2.542h-2.816v4.08h2.816c1.031 0 1.884-.907 1.884-2.05 0-1.143-.853-2.03-1.884-2.03zm76.435 0h-2.816v4.08h2.816c1.03 0 1.883-.907 1.883-2.05 0-1.143-.852-2.03-1.883-2.03z" transform="translate(0 2.188)"/>
    </g>
</svg>
