<svg xmlns="http://www.w3.org/2000/svg" xmlns:xlink="http://www.w3.org/1999/xlink" width="253" height="167" viewBox="0 0 253 167">
    <defs>
        <linearGradient id="a" x1="50%" x2="50%" y1="50%" y2="0%">
            <stop offset="0%" stop-color="#ECF2FC" stop-opacity=".642"/>
            <stop offset="100%" stop-color="#D4E1F8"/>
        </linearGradient>
        <linearGradient id="b" x1="50%" x2="50%" y1="0%" y2="100%">
            <stop offset="0%" stop-color="#CFDDF3"/>
            <stop offset="100%" stop-color="#A1B8E3"/>
        </linearGradient>
        <linearGradient id="c" x1="50%" x2="50%" y1="0%" y2="100%">
            <stop offset="0%" stop-color="#CFDDF3"/>
            <stop offset="100%" stop-color="#A1B8E3"/>
        </linearGradient>
        <linearGradient id="d" x1="68.06%" x2="50%" y1="-30.265%" y2="100%">
            <stop offset="0%" stop-color="#CFDDF3"/>
            <stop offset="100%" stop-color="#A1B8E3"/>
        </linearGradient>
        <linearGradient id="e" x1="68.039%" x2="50%" y1="-30.265%" y2="100%">
            <stop offset="0%" stop-color="#CFDDF3"/>
            <stop offset="100%" stop-color="#A1B8E3"/>
        </linearGradient>
        <linearGradient id="f" x1="38.97%" x2="76.728%" y1="42.335%" y2="32.582%">
            <stop offset="0%" stop-color="#353953"/>
            <stop offset="100%" stop-color="#989DC0"/>
        </linearGradient>
        <linearGradient id="h" x1="67.355%" x2="50%" y1="11.93%" y2="43.951%">
            <stop offset="0%" stop-color="#D1D1D1"/>
            <stop offset="100%" stop-color="#EEE"/>
        </linearGradient>
        <path id="g" d="M12.14 11.218c.385 1.328.21 2.286-.522 2.875-1.099.883-2.202 2.386-3.29 2.51-1.089.123-2.267.72-2.457 2.247-.093.738-3.868 4.553-5.217 9.8-.342 1.33.074 3.374 1.246 6.135l3.12-1.719 4.442-7.2c4.934-1.715 7.716-2.778 8.345-3.188.943-.614 3.999-3.245 3.41-4.231-.59-.986 1.327-7.252 2.466-8.47 1.138-1.218 2.07-4.186 2.093-5.282.023-1.096.418-4.377-2.424-4.272-1.894.07-5.631 3.668-11.212 10.795z"/>
        <linearGradient id="i" x1="50%" x2="50%" y1="0%" y2="100%">
            <stop offset="0%" stop-color="#DEDEDE"/>
            <stop offset="100%" stop-color="#A1B8E3" stop-opacity="0"/>
        </linearGradient>
        <radialGradient id="k" cx="20.393%" cy="34.859%" r="41.475%" fx="20.393%" fy="34.859%" gradientTransform="matrix(.91763 .36507 -.5032 1.06717 .192 -.098)">
            <stop offset="0%" stop-color="#F5F9FF"/>
            <stop offset="100%" stop-color="#E1E1E1"/>
        </radialGradient>
        <linearGradient id="l" x1="21.758%" x2="29.166%" y1="-6.56%" y2="43.646%">
            <stop offset="0%" stop-color="#43486A"/>
            <stop offset="100%" stop-color="#353953"/>
        </linearGradient>
        <linearGradient id="n" x1="54.78%" x2="60.261%" y1="38.183%" y2="88.708%">
            <stop offset="0%" stop-color="#353953" stop-opacity="0"/>
            <stop offset="100%" stop-color="#353953"/>
        </linearGradient>
        <path id="m" d="M31.952 13.672c-4.978-1.242-7.293-.13-9.095-4-1.065-2.287 1.008-9.301 4.5-9.46.858 3.92 5.008 4.258 7.413 4.583 12.912 1.75 14.263 13.563 10.398 20.52-1.245 2.24-2.396 3.85-3.423 5.057-.652.766-1.505 1.69-1.792 2.127-.097.147-.93 1.992-1.074 1.956-.435-.109-.26-.13-.046-2.04.213-1.91.332-2.424.72-3.978.114-.459 2.28-3.984.616-5.26-1.108-.852-2.606-.332-4.492 1.558l-1.146-.432c.757-1.683 1.235-2.927 1.435-3.729.3-1.204.964-5.66-4.014-6.902z"/>
        <linearGradient id="o" x1="-8.15%" x2="50%" y1="36.87%" y2="78.16%">
            <stop offset="0%" stop-color="#43486A"/>
            <stop offset="100%" stop-color="#353953"/>
        </linearGradient>
        <linearGradient id="q" x1="38.376%" x2="31.168%" y1="56.211%" y2="71.253%">
            <stop offset="0%" stop-color="#FFBD00" stop-opacity="0"/>
            <stop offset="100%" stop-color="#FFBD00"/>
        </linearGradient>
        <path id="p" d="M38.477.495c5.232 1.192 8.747 3.18 10.546 5.962 2.697 4.173 4.05 15.258 4.05 18.854s.43 12.417 0 14.823c-.431 2.407-2.407 4.194-6.495 4.194-2.725 0-18.174-5.072-46.344-15.218 3.705-1.833 5.616-3.1 5.734-3.799.177-1.05 8.774-20.184 11.493-22.133C20.18 1.228 25.824.306 28.086.306c-.33.92-1.067 1.66-.026 2.872 1.04 1.211 3.082 1.423 5.105.582 1.348-.56 3.119-1.649 5.312-3.265z"/>
        <filter id="r" width="113.5%" height="116.8%" x="-7%" y="-8.3%" filterUnits="objectBoundingBox">
            <feGaussianBlur in="SourceAlpha" result="shadowBlurInner1" stdDeviation="2.5"/>
            <feOffset dx="-3" in="shadowBlurInner1" result="shadowOffsetInner1"/>
            <feComposite in="shadowOffsetInner1" in2="SourceAlpha" k2="-1" k3="1" operator="arithmetic" result="shadowInnerInner1"/>
            <feColorMatrix in="shadowInnerInner1" values="0 0 0 0 0.0901960784 0 0 0 0 0.254901961 0 0 0 0 0.57254902 0 0 0 0.204200634 0"/>
        </filter>
        <linearGradient id="s" x1="50%" x2="50%" y1="100%" y2="0%">
            <stop offset="0%" stop-color="#FFBD00" stop-opacity=".284"/>
            <stop offset="100%" stop-color="#FFBD00"/>
        </linearGradient>
        <linearGradient id="u" x1="53.655%" x2="84.838%" y1="54.367%" y2="81.956%">
            <stop offset="0%" stop-color="#FFBD00" stop-opacity="0"/>
            <stop offset="100%" stop-color="#FFBD00"/>
        </linearGradient>
        <linearGradient id="v" x1="52.908%" x2="77.722%" y1="54.367%" y2="81.956%">
            <stop offset="0%" stop-color="#FFBD00" stop-opacity="0"/>
            <stop offset="100%" stop-color="#FFBD00"/>
        </linearGradient>
        <linearGradient id="w" x1="50%" x2="50%" y1="0%" y2="100%">
            <stop offset="0%" stop-color="#F8F8F8"/>
            <stop offset="100%" stop-color="#B8B8B8" stop-opacity="0"/>
        </linearGradient>
        <radialGradient id="x" cx="100%" cy="77.381%" r="73.493%" fx="100%" fy="77.381%" gradientTransform="matrix(.26747 -.78725 .92414 .20958 .017 1.399)">
            <stop offset="0%" stop-color="#E7E7E7"/>
            <stop offset="100%" stop-color="#FFF"/>
        </radialGradient>
        <linearGradient id="y" x1="95.539%" x2="46.015%" y1="28.483%" y2="62.336%">
            <stop offset="0%" stop-color="#43486A"/>
            <stop offset="100%" stop-color="#353953"/>
        </linearGradient>
        <radialGradient id="z" cx="100%" cy="77.381%" r="86.583%" fx="100%" fy="77.381%" gradientTransform="matrix(.22703 -.66822 .93403 .1494 .05 1.326)">
            <stop offset="0%" stop-color="#E7E7E7"/>
            <stop offset="100%" stop-color="#FFF"/>
        </radialGradient>
        <radialGradient id="A" cx="100%" cy="77.381%" r="62.73%" fx="100%" fy="77.381%" gradientTransform="matrix(.31335 -.92231 .91077 .29188 -.018 1.47)">
            <stop offset="0%" stop-color="#E7E7E7"/>
            <stop offset="100%" stop-color="#FFF"/>
        </radialGradient>
        <linearGradient id="C" x1="89.924%" x2="44.829%" y1="27.61%" y2="38.92%">
            <stop offset="0%" stop-color="#EDF3FD"/>
            <stop offset="100%" stop-color="#87D3E1"/>
        </linearGradient>
        <path id="B" d="M12.714 54.128c-1.148-.647-4.99.897-4.99 4.021C5.684 51.2.02 41.794.02 31.515c2.596-8.962 9.367-23.09 10.88-25.307C11.909 4.729 16.904 2.66 25.887 0c2.009 2.197 4.39 3.296 7.143 3.296 4.13 0 4.346-2.534 5.45-2.666 1.103-.133 7.353 2.666 10.435 5.643 3.083 2.978 6.383 14.687 14.491 23.777 8.109 9.09 11.017 15.432 15.04 18.847-1.476 1.323-3.475 2.093-3.475 5.23-1.456-1.067-9.58-6.659-16.467-13.167-6.886-6.508-9.94-11.92-10.979-12.654-1.195-.842 1.507 25.227 1.39 29.843-.117 4.617-15.979 4.88-20.94 4.88-4.96 0-12.631-1.718-14.6-3.412-.325-.28.526-36.932 0-35.394C12.04 28.125 8.94 30.05 8.94 32.62c0 5.972 3.78 21.928 3.774 21.508z"/>
        <filter id="D" width="107.7%" height="109.5%" x="-3.8%" y="-4.8%" filterUnits="objectBoundingBox">
            <feGaussianBlur in="SourceAlpha" result="shadowBlurInner1" stdDeviation="2.5"/>
            <feOffset dx="1" dy="1" in="shadowBlurInner1" result="shadowOffsetInner1"/>
            <feComposite in="shadowOffsetInner1" in2="SourceAlpha" k2="-1" k3="1" operator="arithmetic" result="shadowInnerInner1"/>
            <feColorMatrix in="shadowInnerInner1" values="0 0 0 0 0.729411765 0 0 0 0 0.8 0 0 0 0 0.933333333 0 0 0 1 0"/>
        </filter>
        <linearGradient id="E" x1="46.6%" x2="53.4%" y1="107.338%" y2="6.301%">
            <stop offset="0%" stop-color="#EAF0F7" stop-opacity=".116"/>
            <stop offset="100%" stop-color="#D1DDED"/>
        </linearGradient>
        <linearGradient id="G" x1="73.096%" x2="45.111%" y1="33.934%" y2="50%">
            <stop offset="0%" stop-color="#EAF0F7" stop-opacity=".116"/>
            <stop offset="100%" stop-color="#87D3E1"/>
        </linearGradient>
        <linearGradient id="H" x1="16.204%" x2="42.225%" y1="50%" y2="50%">
            <stop offset="0%" stop-color="#E8E8E8"/>
            <stop offset="100%" stop-color="#F6F6F6"/>
        </linearGradient>
        <linearGradient id="I" x1="8.953%" x2="19.799%" y1="49.839%" y2="52.075%">
            <stop offset="0%" stop-color="#EAEFFF"/>
            <stop offset="100%" stop-color="#F7F9FE"/>
        </linearGradient>
        <linearGradient id="J" x1="50%" x2="43.212%" y1="43.682%" y2="51.3%">
            <stop offset="0%" stop-color="#0041B2"/>
            <stop offset="100%" stop-color="#2D64D7" stop-opacity="0"/>
        </linearGradient>
        <linearGradient id="K" x1="39.974%" x2="65.338%" y1="21.658%" y2="21.658%">
            <stop offset="0%" stop-color="#353953"/>
            <stop offset="100%" stop-color="#43486A"/>
        </linearGradient>
        <path id="L" d="M43.614 45.923l23.817-9.49a.944.944 0 0 0-.031-1.764L37.074 23.793 7.158 31.191l36.456 14.732z"/>
        <filter id="M" width="113.3%" height="137.5%" x="-6.7%" y="-19%" filterUnits="objectBoundingBox">
            <feGaussianBlur in="SourceAlpha" result="shadowBlurInner1" stdDeviation="2.5"/>
            <feOffset dx="-4" dy="-1" in="shadowBlurInner1" result="shadowOffsetInner1"/>
            <feComposite in="shadowOffsetInner1" in2="SourceAlpha" k2="-1" k3="1" operator="arithmetic" result="shadowInnerInner1"/>
            <feColorMatrix in="shadowInnerInner1" values="0 0 0 0 0.223529412 0 0 0 0 0.239215686 0 0 0 0 0.349019608 0 0 0 1 0"/>
        </filter>
        <linearGradient id="N" x1="80.308%" x2="20.673%" y1="27.151%" y2="72.981%">
            <stop offset="0%" stop-color="#80849B"/>
            <stop offset="44.095%" stop-color="#43486A"/>
            <stop offset="100%" stop-color="#353953"/>
        </linearGradient>
        <linearGradient id="P" x1="65.379%" x2="61.434%" y1="73.722%" y2="84.649%">
            <stop offset="0%" stop-color="#869FCE" stop-opacity="0"/>
            <stop offset="100%" stop-color="#4975C1"/>
        </linearGradient>
        <path id="O" d="M1.856.374l33.603 10.88a2.83 2.83 0 0 1 1.911 2.18l6.013 32.608L6.969 31.26.403 1.697A1.132 1.132 0 0 1 1.856.374z"/>
        <filter id="Q" width="107.4%" height="107.5%" x="-3.7%" y="-3.6%" filterUnits="objectBoundingBox">
            <feGaussianBlur in="SourceAlpha" result="shadowBlurInner1" stdDeviation="1.5"/>
            <feOffset dx="-1" dy="1" in="shadowBlurInner1" result="shadowOffsetInner1"/>
            <feComposite in="shadowOffsetInner1" in2="SourceAlpha" k2="-1" k3="1" operator="arithmetic" result="shadowInnerInner1"/>
            <feColorMatrix in="shadowInnerInner1" values="0 0 0 0 1 0 0 0 0 1 0 0 0 0 1 0 0 0 0.5 0"/>
        </filter>
    </defs>
    <g fill="none" fill-rule="evenodd">
        <path fill="url(#a)" d="M171.748 30.525c25.801 1.675 46.678 14.075 52.31 33.68 8.028 27.945-17.964 59.948-58.055 71.48-28.58 8.22-56.61 3.818-73.26-9.512-34.72 2.908-64.526-10.575-71.454-34.695C12.843 62.08 41.58 28.012 85.476 15.387c35.39-10.18 69.83-3.313 86.272 15.138z" opacity=".2" transform="translate(.146 -.693)"/>
        <g stroke-linecap="round" stroke-width="1.134" opacity=".3">
            <path stroke="url(#b)" d="M15.731 23.046c0-2.423.612-9.974 3.94-14.572" transform="scale(-1 1) rotate(31 -214.615 -153.826)"/>
            <path stroke="url(#c)" d="M.4 8.906C.4 6.482 7.2 4.78 10.529.183" transform="rotate(-31 220.08 -134.123)"/>
        </g>
        <g opacity=".3">
            <path fill="url(#d)" d="M21.343 19.427c1.475-2.07 2.213-4.383 2.213-6.938 0-3.831-.99-6.937-2.213-6.937-1.221 0-2.212 3.106-2.212 6.938 0 2.554.738 4.867 2.212 6.937z" transform="rotate(90 43.154 130.931)"/>
            <path fill="url(#e)" d="M6.605 13.844C8.08 11.772 8.818 9.46 8.82 6.904c.001-3.833-.988-6.94-2.21-6.94-1.22 0-2.212 3.108-2.213 6.94-.001 2.556.735 4.87 2.21 6.94z" transform="rotate(-48 185.494 -102.05)"/>
        </g>
        <path fill="url(#f)" d="M70.684 31.083l-42.15-7.872C16.3 41.146 10.513 56.271 11.169 68.587c7.728 3.205 22.606 8.278 44.634 15.217l17.725-47.696a3.775 3.775 0 0 0-2.844-5.025z" transform="translate(156.678 48.372)"/>
        <g transform="translate(173.086 70.64)">
            <mask id="j" fill="#fff">
                <use xlink:href="#g"/>
            </mask>
            <use fill="url(#h)" xlink:href="#g"/>
            <path fill="url(#i)" d="M22.769 16.855c-3.593-6.381-6.23-10.372-7.908-11.974C13.183 3.28 17.187 1.672 26.874.058l-4.105 18.604v-1.807z" mask="url(#j)" style="mix-blend-mode:multiply"/>
        </g>
        <path fill="url(#k)" d="M25.603 10.972c-1.301.877-.191 4.404-1.6 6.417-.77 1.101-2.388 1.713-3.136 2.151-2.115 1.24.058 2.124.495 2.862.438.738.09 2.405-.238 3.718-.327 1.314-1.489 4.274-.244 4.935 1.245.661 8.89 3.55 11.1 2.667 2.21-.882 3.001-5.3 3.546-5.588.545-.287.927.016 1.43.142 1.31.326 2.492-.408 3.121-1.453.713-1.183 1.726-.643 1.178-2.26-.845-2.495-5.744-12.322-7.69-13.028-1.947-.707-5.95-1.919-7.962-.563z" transform="translate(156.678 48.372)"/>
        <g transform="translate(156.678 48.372)">
            <use fill="url(#l)" xlink:href="#m"/>
            <use fill="url(#n)" xlink:href="#m"/>
        </g>
        <path fill="url(#o)" d="M34.533 24.361c-.38.847-1.814 2.8-3.108 3.506s-4.02.749-4.579-.055c-.56-.805-3.099-4.448-5.388-5.02-.115.462-.429 1.246-.941 2.354 1.772.737 2.8 1.43 3.087 2.08.43.974.66.321.231.754-.429.433-2.668.1-2.838-1.59-.646 1.346-1.34 4.978-1.096 5.807.245.83 1.653 1.21 3.043 1.3 1.39.09 6.342.846 7.603.588 1.261-.258 2.863-.11 3.918-3.167 1.055-3.058.82-5.038 2.198-7.642 1.377-2.604-1.75.238-2.13 1.085z" transform="translate(156.678 48.372)"/>
        <g transform="translate(156.678 84.604)">
            <mask id="t" fill="#fff">
                <use xlink:href="#p"/>
            </mask>
            <use fill="#FFBD00" xlink:href="#p"/>
            <use fill="url(#q)" xlink:href="#p"/>
            <use fill="#000" filter="url(#r)" xlink:href="#p"/>
            <path fill="url(#s)" d="M25.33 1.043c-4.332 4.437 4.215 6.802 7.705 5.62C35.36 5.873 37.83 4 40.44 1.042c-6.579-4.9-10.742-6.124-12.49-3.675-2.62 3.675 1.712-.763-2.62 3.675z" mask="url(#t)" opacity=".585" style="mix-blend-mode:multiply"/>
            <path fill="url(#u)" d="M19.156 41.192c3.085 0 23.144-3.324 23.144-6.022 0-1.798-.516-9.033-1.547-21.705" mask="url(#t)" opacity=".547" style="mix-blend-mode:multiply"/>
            <path fill="url(#v)" d="M-8.945 29.49c1.397 0 7.858 8.19 13.76 5.434 7.13-3.33 11.282-15.66 11.282-17.136 0-1.129 1.872-5.133 1.16-9.496-.283-1.725-1.573-4.46-3.873-8.206" mask="url(#t)" opacity=".547" style="mix-blend-mode:multiply"/>
        </g>
        <g>
            <path fill="url(#w)" d="M26.041 25.498c.76 5.79.905 9.159.437 10.107-.702 1.423.658 8.115 4.99 8.503 4.33.388 6.601-1.459 6.771-5.974.17-4.515.442-6.256 1.141-8.254.7-1.998-12.336-10.276-12.902-8.746-.377 1.02-.523 2.475-.437 4.364z" style="mix-blend-mode:multiply" transform="translate(98.214 -.693)"/>
            <path fill="url(#x)" d="M43.844 12.198c0 1.287.17 5.306.041 6.324-.129 1.018-.232 2.536-.116 4.496.116 1.96-.901 6.782-2.037 8.53-.678 1.042-3.366 3.053-6.003 2.77-3.125-.335-6.543-3.355-6.908-4.865-.674-2.784-.116-5.24-2.058-6.72-1.942-1.479-3.357-2.853-3.183-5.137.175-2.283 2.17-7.72 3.183-7.948 1.014-.229 17.08 1.263 17.08 2.55z" transform="translate(98.214 -.693)"/>
            <path fill="url(#y)" d="M27.159 10.554c.921 1.392 8.99 8.1 17.077 3.745 8.088-4.355-2.67-12.262-7.549-13.164-4.878-.902-9.079-.4-12.03 3.697-2.95 4.097-4.43 11.118 1.342 20.644.254-1.512.381-2.52.381-3.022-2.297-2.103-2.871-4.063-1.723-5.88 1.723-2.724 2.293 2.618 2.502 3.476.685 0 1.117-.12 1.294-.359-.472-1.348-.645-2.595-.517-3.74.192-1.719.76-2.101-.777-5.397z" transform="translate(98.214 -.693)"/>
            <path fill="#43486A" d="M109.976 110.31c0-2.099-2.43-15.85 2.579-19.981 5.01-4.131 11.206 1.895 34.026 2.809.376 9.235.376 15.736 0 19.504-.376 3.769-14.16 9.11-36.605-2.332z"/>
            <path fill="url(#z)" d="M7.894 93.195c.538 2.385 2.318 4.933 2.918 5.483.6.55 2.782 1.233 3.194 1.1.413-.132 1.499-1.04 1.548-2.103.049-1.063-.993-1.662-1-3.232-.007-1.57-2.617-3.848-2.617-5.238 0-1.389-4.581 1.605-4.043 3.99z" transform="translate(98.214 -.693)"/>
            <path fill="url(#A)" d="M74.976 89.923c1.618 2.149 2.672 2.525 3.279 3.165.607.641 1.995 2.903 2.51 2.526.516-.377 1.05-1.12.248-2.526-.802-1.406-2.017-2.889-1.596-3.633.422-.744 2.48-2.944 4.2-3.455 1.718-.51 2.289-.18 2.46-.455.171-.274-2.055-.673-2.972-.775a16.755 16.755 0 0 0-4.092 0c-1.25.147-2.12-.373-2.612-1.56-2.03 3.043-2.505 5.28-1.425 6.713z" transform="translate(98.214 -.693)"/>
            <g transform="translate(98.214 35.162)">
                <mask id="F" fill="#fff">
                    <use xlink:href="#B"/>
                </mask>
                <use fill="url(#C)" xlink:href="#B"/>
                <use fill="#000" filter="url(#D)" xlink:href="#B"/>
                <path fill="url(#E)" d="M11.711 27.434l7.107-9.451c1.755 20.432-1.285 34.187-9.119 41.264-2.07-12.28-.918-18.698 0-24.064.402-2.35 1.073-4.933 2.012-7.75z" mask="url(#F)" style="mix-blend-mode:multiply"/>
                <path fill="url(#G)" d="M14.08 61.382c2.654-7.778 14.575-33.393 19.678-37.045 5.102-3.653 5.486-8.367 5.294-14.624-.192-6.257-12.11-18.723-18.34-14.008S-2.197 9.12-4.02 23.708C-5.845 38.296 1.922 60.672 5.432 58.46c3.509-2.212 5.996 10.699 8.649 2.922z" mask="url(#F)" opacity=".162" style="mix-blend-mode:multiply"/>
            </g>
            <path fill="url(#H)" d="M26.643 31.133c0 1.422 2.16 5.398 6.334 5.246 4.174-.15 5.013-.266 5.487-2.386 0 3.141.163 4.068-.607 6.14S32.291 43.34 29.6 41.62c-2.69-1.721-4.092-2.751-3.699-5.893.394-3.141.742-6.016.742-4.594z" transform="translate(98.214 -.693)"/>
        </g>
        <g>
            <path fill="url(#I)" d="M0 108.35L108.915 85.6c6.132-1.282 15.877-.622 21.784 1.478l114.4 40.682c9.836 3.498 9.491 7.876-.772 9.78l-48.167 8.937c-10.262 1.904-27.041 3.447-37.48 3.447H18.9C8.46 149.924 0 141.461 0 131.023V108.35z" transform="translate(.146 16.669)"/>
            <path fill="url(#J)" d="M83.849 112.393l46.167-7.467 35.127 15.4-50.853 13.499" opacity=".197" style="mix-blend-mode:multiply" transform="translate(.146 16.669)"/>
            <g transform="translate(121.788 90.831)">
                <use fill="url(#K)" xlink:href="#L"/>
                <use fill="#000" filter="url(#M)" xlink:href="#L"/>
            </g>
            <g transform="translate(121.788 90.831)">
                <use fill="url(#N)" xlink:href="#O"/>
                <use fill="url(#P)" fill-opacity=".23" xlink:href="#O"/>
                <use fill="#000" filter="url(#Q)" xlink:href="#O"/>
            </g>
            <path fill="#D6E3FA" d="M140.501 115.237c1.732.845 3.558.844 4.311-.702.754-1.545-.605-3.295-2.337-4.14-1.732-.845-3.37-.844-4.123.702-.753 1.546.417 3.295 2.149 4.14z"/>
            <g>
                <path stroke="#18A1B2" stroke-width=".945" d="M129.068 19.703a1.317 1.317 0 0 1 1.313-1.322l3.513-.02a1.282 1.282 0 0 1 1.297 1.318l-.03 1.688a1.33 1.33 0 0 1-1.336 1.31l-3.427-.044a1.343 1.343 0 0 1-1.321-1.331l-.009-1.599zM139.047 19.685a1.307 1.307 0 0 1 1.315-1.314l2.952.001c.735 0 1.325.586 1.317 1.326l-.016 1.687a1.306 1.306 0 0 1-1.336 1.298l-2.877-.06a1.37 1.37 0 0 1-1.338-1.34l-.017-1.598z"/>
                <path fill="none" stroke="#18A1B2" stroke-width=".756" d="M135.17 20.254h3.772"/>
                <path fill="#18A1B2" d="M124.76 17.042l4.595 2.234v2.187l-4.16-2.904z"/>
            </g>
        </g>
    </g>
</svg>
