<svg width="23" height="17" viewBox="0 0 23 17" fill="none" xmlns="http://www.w3.org/2000/svg">
<path fill-rule="evenodd" clip-rule="evenodd" d="M13.6707 15H8.32929C7.91746 16.1652 6.80622 17 5.5 17C4.19378 17 3.08254 16.1652 2.67071 15H1.5C0.947715 15 0.5 14.5523 0.5 14V6.66667C0.5 4.09611 2.53259 2 5.05556 2H8.5V1C8.5 0.447715 8.94771 0 9.5 0H21.5C22.0523 0 22.5 0.447715 22.5 1V14C22.5 14.5523 22.0523 15 21.5 15H19.3293C18.9175 16.1652 17.8062 17 16.5 17C15.1938 17 14.0825 16.1652 13.6707 15ZM13.6707 13H10.5V2H20.5V13H19.3293C18.9175 11.8348 17.8062 11 16.5 11C15.1938 11 14.0825 11.8348 13.6707 13ZM8.5 13H8.32929C7.91746 11.8348 6.80622 11 5.5 11C4.19378 11 3.08254 11.8348 2.67071 13H2.5V10H7.5V8H2.5V6.66667C2.5 5.18714 3.65116 4 5.05556 4H8.5V13ZM6.5 14C6.5 14.5523 6.05228 15 5.5 15C4.94772 15 4.5 14.5523 4.5 14C4.5 13.4477 4.94772 13 5.5 13C6.05228 13 6.5 13.4477 6.5 14ZM16.5 15C17.0523 15 17.5 14.5523 17.5 14C17.5 13.4477 17.0523 13 16.5 13C15.9477 13 15.5 13.4477 15.5 14C15.5 14.5523 15.9477 15 16.5 15Z" fill="#EF4056"/>
</svg>
