<svg width="20" height="24" viewBox="0 0 20 24" fill="none" xmlns="http://www.w3.org/2000/svg">
<path d="M10 0.41748L7.90798 2.50952L10 4.60156L12.0921 2.50952L10 0.41748Z" fill="#2BB5B2"/>
<path d="M6.00002 2.49998V5.49998L9.50002 8.99998V5.99998L6.00002 2.49998Z" fill="#2BB5B2"/>
<path d="M14 5.5V2.5L10.5 5.99998V8.99998L14 5.5Z" fill="#2BB5B2"/>
<path d="M9.5 13.9843V11L6 7.49998H0C0 12.8804 1.78107 14.4585 3.54639 16.0226C3.88091 16.3189 4.21486 16.6148 4.53602 16.936C5.88002 18.28 7.00002 19.4 7.00002 21C7.00002 22.3955 6.00002 23 4.50002 23L5.00002 24L9.50002 24.0046V16L6.00002 12.5L6 10.5L9.5 13.9843Z" fill="#2BB5B2"/>
<path d="M10.5 11V13.9843L14 10.5L14 12.5L10.5 16V24.0046L15 24L15.5 23C14 23 13 21.8955 13 20.5C13 18.9 14.12 17.86 15.464 16.612C15.7852 16.3138 16.1191 16.0417 16.4536 15.7693C18.219 14.3313 20 12.8804 20 7.49998H14L10.5 11Z" fill="#2BB5B2"/>
</svg>
