<svg width="24" height="24" viewBox="0 0 24 24" fill="none" xmlns="http://www.w3.org/2000/svg">
<g id="Nature=Ship by Seller">
<path id="Shape" fill-rule="evenodd" clip-rule="evenodd" d="M17 3C17 2.44772 16.5523 2 16 2H7.99999C7.44771 2 6.99999 2.44772 6.99999 3V8C6.99999 10.7614 9.23857 13 12 13C14.7614 13 17 10.7614 17 8H20V6H16.9999L17 3ZM12 14C18.0952 14 21.5717 16.3177 21.9958 20.908C22.0499 21.4941 21.5886 22 21 22H2.99999C2.41138 22 1.95008 21.4941 2.00423 20.908C2.42832 16.3177 5.9048 14 12 14ZM12 16C7.41928 16 4.9162 17.3229 4.18837 20H19.8116C19.0838 17.3229 16.5807 16 12 16ZM8.99999 8C8.99999 9.65685 10.3431 11 12 11C13.6568 11 15 9.65685 15 8H8.99999ZM8.99999 4H15L14.9999 6H8.99991L8.99999 4Z" fill="#D86B00"/>
</g>
</svg>
