<svg width="20" height="20" viewBox="0 0 20 20" fill="none" xmlns="http://www.w3.org/2000/svg">
<rect x="2.60864" y="11.3044" width="14.7826" height="6.95652" rx="1.09524" fill="#FF9EAA" stroke="#FF9EAA" stroke-width="2"/>
<rect x="0.869507" y="18.2609" width="18.2609" height="0.869566" rx="0.434783" fill="#EF4056" stroke="#EF4056" stroke-width="1.09524"/>
<path d="M7.93049 10.2348C7.93049 10.3452 7.84095 10.4348 7.73049 10.4348H7.00006C6.8896 10.4348 6.80006 10.3452 6.80006 10.2348V5.25345C6.80006 5.11635 6.66524 5.0199 6.53548 5.06417L5.39507 5.45321C5.26531 5.49748 5.13049 5.40103 5.13049 5.26392V4.72664C5.13049 4.64274 5.18287 4.56775 5.26165 4.53887L7.76671 3.62048C7.78014 3.61556 7.79434 3.61304 7.80865 3.61304C7.87594 3.61304 7.93049 3.66759 7.93049 3.73488V10.2348Z" fill="#E6123D"/>
<path d="M13.2626 7.80869C13.2626 7.91915 13.3522 8.00869 13.4626 8.00869H13.9105C14.0209 8.00869 14.1105 8.09823 14.1105 8.20869V8.72173C14.1105 8.83219 14.0209 8.92173 13.9105 8.92173H13.4626C13.3522 8.92173 13.2626 9.01128 13.2626 9.12173V10.2348C13.2626 10.3452 13.1731 10.4348 13.0626 10.4348H12.3278C12.2174 10.4348 12.1278 10.3452 12.1278 10.2348V9.12173C12.1278 9.01128 12.0383 8.92173 11.9278 8.92173H9.3801C9.27307 8.92173 9.185 8.83746 9.1803 8.73053L9.16106 8.29351C9.15925 8.25246 9.17013 8.21184 9.19223 8.17719L12.0297 3.72725C12.0665 3.66965 12.1301 3.63478 12.1984 3.63478H13.0626C13.1731 3.63478 13.2626 3.72432 13.2626 3.83478V7.80869ZM10.5432 7.70195C10.4591 7.83513 10.5548 8.00869 10.7123 8.00869H11.9278C12.0383 8.00869 12.1278 7.91915 12.1278 7.80869V5.34271C12.1278 5.29711 12.067 5.28166 12.0452 5.32173L10.5432 7.70195Z" fill="#E6123D"/>
<path d="M12.2817 0.393106C12.3533 0.238257 12.5733 0.238257 12.6449 0.393107L13.3888 2.00375C13.7008 2.67928 13.2074 3.45066 12.4633 3.45066C11.7192 3.45066 11.2258 2.67928 11.5378 2.00375L12.2817 0.393106Z" fill="#FFBA49"/>
<path d="M6.91222 0.393106C6.98374 0.238257 7.20384 0.238257 7.27536 0.393107L8.01928 2.00375C8.33129 2.67928 7.83789 3.45066 7.09379 3.45066C6.34969 3.45066 5.85629 2.67928 6.1683 2.00375L6.91222 0.393106Z" fill="#FFBA49"/>
</svg>
