<svg width="24" height="24" viewBox="0 0 24 24" fill="none" xmlns="http://www.w3.org/2000/svg">
<path d="M22 12C22 17.5234 17.5234 22 12 22C6.47664 22 2 17.5234 2 12C2 6.47664 6.47664 2 12 2C17.5234 2 22 6.47664 22 12Z" fill="#FFDF4E"/>
<path d="M8.40436 21.3342C7.65745 21.0464 6.9538 20.6715 6.30586 20.2219L20.1824 6.24931C20.64 6.89934 21.0222 7.60637 21.3161 8.35766L8.40436 21.3342Z" fill="#FFF077"/>
<path d="M18.7266 4.59999L4.63757 18.7677C4.11861 18.2034 3.6637 17.5793 3.28436 16.9068L16.8466 3.25067C17.5257 3.62759 18.1562 4.08127 18.7266 4.59999Z" fill="#FFF077"/>
<path d="M17.6569 17.6568C14.5321 20.7816 9.4679 20.7816 6.34316 17.6568C3.21842 14.5321 3.21842 9.46787 6.34316 6.34313C9.4679 3.21839 14.5321 3.21839 17.6569 6.34313C20.7816 9.46787 20.7816 14.5321 17.6569 17.6568Z" fill="#FFCB05"/>
<path d="M6.34314 17.6568C9.46788 20.7816 14.5321 20.7816 17.6568 17.6568C20.7816 14.5321 20.7816 9.46788 17.6568 6.34314L6.34314 17.6568Z" fill="#FCA400"/>
<path d="M13.5888 13.5327L13.0187 14.0934C12.9813 14.1308 12.9626 14.1776 12.972 14.2336L13.1028 15.0187C13.1215 15.1495 12.9907 15.243 12.8785 15.1869L12.1682 14.8131C12.1215 14.785 12.0654 14.785 12.0281 14.8131L11.3178 15.1869C11.2056 15.243 11.0748 15.1495 11.0935 15.0187L11.2243 14.2336C11.2337 14.1869 11.215 14.1308 11.1776 14.0934L10.6075 13.5327C10.514 13.4392 10.5701 13.2897 10.6916 13.271L11.486 13.1589C11.5327 13.1495 11.5795 13.1215 11.6075 13.0748L11.9626 12.3551C12.0187 12.243 12.1869 12.243 12.243 12.3551L12.5981 13.0748C12.6168 13.1215 12.6636 13.1495 12.7196 13.1589L13.5047 13.271C13.6262 13.2897 13.6823 13.4486 13.5888 13.5327ZM16.9533 10.4112L16.0935 9.55139C15.9533 9.41121 15.7196 9.42055 15.5888 9.57009C14.7383 10.5514 13.4766 11.1589 12.0841 11.1589C10.6916 11.1589 9.44861 10.5514 8.59815 9.58878C8.4673 9.43924 8.23366 9.4299 8.09347 9.57009L7.243 10.4206C7.11216 10.5514 7.10282 10.757 7.23366 10.8972C7.85983 11.5794 8.63553 12.1308 9.49534 12.5047V16.0093C9.49534 16.5047 9.89721 16.9065 10.3925 16.9065H13.8038C14.2991 16.9065 14.7009 16.5047 14.7009 16.0093V12.5047C15.5701 12.1308 16.3365 11.5794 16.9626 10.8972C17.0935 10.7477 17.0841 10.542 16.9533 10.4112Z" fill="#FFF077"/>
<path d="M12.1028 9.57009C12.8131 9.57009 13.3832 8.99999 13.3832 8.28971C13.3832 7.57943 12.8131 7.00934 12.1028 7.00934C11.3925 7.00934 10.8224 7.58878 10.8224 8.28971C10.8131 8.99999 11.3925 9.57009 12.1028 9.57009Z" fill="#FFF077"/>
</svg>
