<svg width="40" height="40" viewBox="0 0 40 40" fill="none" xmlns="http://www.w3.org/2000/svg">
<path d="M26.6668 28.3334H18.8335L23.3335 21.6667H17.5002L10.8335 31.6667H17.5002L11.6668 40.0001L26.6668 28.3334Z" fill="url(#paint0_linear)"/>
<path fill-rule="evenodd" clip-rule="evenodd" d="M16.6622 16.6731C17.7113 15.2792 18.3332 13.5455 18.3332 11.6666C18.3332 7.06421 14.6022 3.33325 9.99984 3.33325C5.39746 3.33325 1.6665 7.06421 1.6665 11.6666C1.6665 15.7912 4.66313 19.216 8.59805 19.8825L4.07535 26.6666H10.0846L16.6622 16.6731ZM13.3332 11.6666C13.3332 13.5075 11.8408 14.9999 9.99984 14.9999C8.15889 14.9999 6.6665 13.5075 6.6665 11.6666C6.6665 9.82564 8.15889 8.33325 9.99984 8.33325C11.8408 8.33325 13.3332 9.82564 13.3332 11.6666Z" fill="url(#paint1_linear)"/>
<path fill-rule="evenodd" clip-rule="evenodd" d="M36.6622 16.6731C37.7113 15.2792 38.3332 13.5455 38.3332 11.6666C38.3332 7.06421 34.6022 3.33325 29.9998 3.33325C25.3975 3.33325 21.6665 7.06421 21.6665 11.6666C21.6665 15.7912 24.6631 19.216 28.5981 19.8825L24.0753 26.6666H30.0846L36.6622 16.6731ZM33.3332 11.6666C33.3332 13.5075 31.8408 14.9999 29.9998 14.9999C28.1589 14.9999 26.6665 13.5075 26.6665 11.6666C26.6665 9.82564 28.1589 8.33325 29.9998 8.33325C31.8408 8.33325 33.3332 9.82564 33.3332 11.6666Z" fill="url(#paint2_linear)"/>
<defs>
<linearGradient id="paint0_linear" x1="17.9168" y1="21.6667" x2="17.9168" y2="40.0001" gradientUnits="userSpaceOnUse">
<stop stop-color="#CC092A"/>
<stop offset="1" stop-color="#FFBA53"/>
</linearGradient>
<linearGradient id="paint1_linear" x1="1.6665" y1="9.16659" x2="12.4507" y2="22.0073" gradientUnits="userSpaceOnUse">
<stop stop-color="#F97800"/>
<stop offset="1" stop-color="#FFC700"/>
</linearGradient>
<linearGradient id="paint2_linear" x1="21.6665" y1="9.16659" x2="32.4507" y2="22.0073" gradientUnits="userSpaceOnUse">
<stop stop-color="#F97800"/>
<stop offset="1" stop-color="#FFC700"/>
</linearGradient>
</defs>
</svg>
